# xmcd CD database file
#
# Track frame offsets:
#	150
#	19439
#	37672
#	60119
#	90681
#
# Disc length: 1605 seconds
#
# Revision: 0
# Processed by: cddbd v1.5.2PL0 Copyright (c) Steve Scherf et al.
# Submitted via: CDex 1.51
#
DISCID=2e064305
DTITLE=Ornette Coleman - Cool Jazz Collection Vol.33
DYEAR=2009
DGENRE=Jazz
TTITLE0=Invisible
TTITLE1=Rejoicing
TTITLE2=Lonely Woman
TTITLE3=Congeniality
TTITLE4=Ramblin'
EXTD=YEAR: 2009
EXTT0=
EXTT1=
EXTT2=
EXTT3=
EXTT4=
PLAYORDER=
